<mxfile host="app.diagrams.net" modified="2023-04-06T11:40:31.625Z" agent="Mozilla/5.0 (Windows NT 10.0; Win64; x64) AppleWebKit/537.36 (KHTML, like Gecko) Chrome/112.0.0.0 Safari/537.36" version="21.1.1" etag="kWTX14iD-73QJQndUeE7" type="github">
  <diagram name="第 1 页" id="Bfdyt7MgTrXp8kYL7G_c">
    <mxGraphModel>
      <root>
        <mxCell id="0" />
        <mxCell id="1" parent="0" />
      </root>
    </mxGraphModel>
  </diagram>
</mxfile>
